<svg width="41" height="40" viewBox="0 0 41 40" fill="none" xmlns="http://www.w3.org/2000/svg">
<path d="M23.2781 14.8154C21.9559 14.8154 20.7039 15.1081 19.5744 15.6266V10.7079C20.6225 10.5302 21.4262 9.61895 21.4262 8.51888V5.55585C21.4262 4.32999 20.4301 3.3335 19.2039 3.3335H11.0557C9.82987 3.3335 8.83337 4.32966 8.83337 5.55585V8.51888C8.83337 9.61895 9.63708 10.5299 10.6852 10.7079L10.6855 32.2225C10.6855 34.6742 12.6781 36.6668 15.1299 36.6668C17.5816 36.6668 19.5742 34.6742 19.5742 32.2225V31.7817C20.7037 32.3002 21.9557 32.5929 23.2779 32.5929C28.1781 32.5929 32.1668 28.6041 32.1668 23.7041C32.1668 18.8037 28.1781 14.8152 23.2779 14.8152L23.2781 14.8154ZM17.7225 4.81537H19.2039C19.6113 4.81537 19.9446 5.14865 19.9446 5.55605V8.51908C19.9446 8.9265 19.6113 9.25975 19.2039 9.25975H17.7225V4.81537ZM18.093 10.7414V16.4894C17.8411 16.6708 17.6003 16.8635 17.3706 17.0671C15.5707 15.9337 13.2853 15.4561 12.1669 15.2783V10.7414L18.093 10.7414ZM14.0188 4.81537H16.2412V9.25975H14.0188V4.81537ZM11.0558 9.26002C10.6483 9.26002 10.3151 8.92674 10.3151 8.51934V5.55631C10.3151 5.14889 10.6484 4.81564 11.0558 4.81564H12.5371V9.26002H11.0558ZM18.0928 32.223C18.0928 33.8562 16.7631 35.186 15.1298 35.186C13.4965 35.186 12.1667 33.8563 12.1667 32.223V16.7785C13.3259 16.9785 15.0001 17.4117 16.3298 18.1711C15.115 19.6933 14.389 21.6154 14.389 23.7044C14.389 26.671 15.8521 29.3008 18.0927 30.9193L18.0928 32.223ZM23.2779 31.1118C19.1925 31.1118 15.8705 27.7897 15.8705 23.7044C15.8705 19.6191 19.1925 16.297 23.2779 16.297C27.3632 16.297 30.6853 19.6191 30.6853 23.7044C30.6853 27.7897 27.3632 31.1118 23.2779 31.1118Z" fill="url(#paint0_linear_330_2455)" stroke="url(#paint1_linear_330_2455)" stroke-width="0.5"/>
<path d="M23.8668 18.8079C23.7262 18.6263 23.5077 18.519 23.278 18.519C23.0483 18.519 22.8298 18.6265 22.6892 18.8079L20.0633 22.2339C18.8042 23.8671 18.9486 26.2081 20.393 27.6783C21.1632 28.4595 22.189 28.8892 23.278 28.8892C24.3669 28.8892 25.3929 28.4596 26.1632 27.6781C27.6077 26.2079 27.7521 23.8708 26.4929 22.2337L23.8668 18.8079ZM25.1076 26.6372C24.6188 27.1335 23.9668 27.4076 23.278 27.4076C22.5892 27.4076 21.9372 27.1335 21.4484 26.6372C20.5188 25.6927 20.4261 24.1891 21.2373 23.1335L23.278 20.4743L25.3187 23.1335C26.1299 24.1891 26.0371 25.6927 25.1076 26.6372H25.1076Z" fill="url(#paint2_linear_330_2455)" stroke="url(#paint3_linear_330_2455)" stroke-width="0.5"/>
<defs>
<linearGradient id="paint0_linear_330_2455" x1="6.29969" y1="36.6668" x2="35.328" y2="35.182" gradientUnits="userSpaceOnUse">
<stop stop-color="#6B4DE0"/>
<stop offset="0.544792" stop-color="#9C42E3"/>
<stop offset="1" stop-color="#C339E5"/>
</linearGradient>
<linearGradient id="paint1_linear_330_2455" x1="6.29969" y1="36.6668" x2="35.328" y2="35.182" gradientUnits="userSpaceOnUse">
<stop stop-color="#6B4DE0"/>
<stop offset="0.544792" stop-color="#9C42E3"/>
<stop offset="1" stop-color="#C339E5"/>
</linearGradient>
<linearGradient id="paint2_linear_330_2455" x1="18.3223" y1="28.8892" x2="28.4461" y2="28.3083" gradientUnits="userSpaceOnUse">
<stop stop-color="#6B4DE0"/>
<stop offset="0.544792" stop-color="#9C42E3"/>
<stop offset="1" stop-color="#C339E5"/>
</linearGradient>
<linearGradient id="paint3_linear_330_2455" x1="18.3223" y1="28.8892" x2="28.4461" y2="28.3083" gradientUnits="userSpaceOnUse">
<stop stop-color="#6B4DE0"/>
<stop offset="0.544792" stop-color="#9C42E3"/>
<stop offset="1" stop-color="#C339E5"/>
</linearGradient>
</defs>
</svg>
