<svg width="13" height="20" viewBox="0 0 13 20" fill="none" xmlns="http://www.w3.org/2000/svg">
<path d="M7.50398 10.227V10.3643L7.57414 10.4824L12.0969 18.0937C12.2273 18.7011 11.8751 19.3102 11.2828 19.5H1.34157C0.745387 19.3088 0.391829 18.6918 0.529949 18.0792L4.45207 10.442L4.50706 10.3349L4.5073 10.2146L4.51622 5.71533L4.51722 5.21462L4.01651 5.21434L3.74113 5.21418H3.74085C3.54489 5.21418 3.38479 5.05479 3.38479 4.8572C3.38479 4.6607 3.54459 4.501 3.7408 4.50098C3.74081 4.50098 3.74083 4.50098 3.74085 4.50098L8.31063 4.50145H8.31068C8.5071 4.50145 8.66719 4.66168 8.66719 4.85751C8.66719 5.05477 8.5068 5.21449 8.31068 5.21449H7.99615H7.49527L7.49615 5.71536L7.50398 10.2125V10.2129V10.227Z" stroke="#9F9DA6"/>
<path fill-rule="evenodd" clip-rule="evenodd" d="M4.87139 3.14416C5.18765 3.14416 5.44331 2.8882 5.44331 2.57257C5.44331 2.25678 5.18751 2.00098 4.87139 2.00098C4.55545 2.00098 4.2998 2.25677 4.2998 2.57257C4.2998 2.88804 4.55529 3.14416 4.87139 3.14416Z" fill="#9F9DA6"/>
<path fill-rule="evenodd" clip-rule="evenodd" d="M7.15743 1.71493C7.63082 1.71493 8.01474 1.33163 8.01474 0.857626C8.01474 0.38364 7.63081 0 7.15743 0C6.68389 0 6.2998 0.383616 6.2998 0.857626C6.2998 1.33161 6.68373 1.71493 7.15743 1.71493Z" fill="#9F9DA6"/>
<path fill-rule="evenodd" clip-rule="evenodd" d="M6.58594 3.14386C6.58594 3.4598 6.84189 3.71577 7.15769 3.71577C7.47317 3.71577 7.72928 3.45981 7.72928 3.14386C7.72928 2.82838 7.47395 2.57227 7.15769 2.57227C6.84143 2.57227 6.58594 2.82806 6.58594 3.14386Z" fill="#9F9DA6"/>
</svg>
