<svg width="14" height="14" viewBox="0 0 14 14" fill="none" xmlns="http://www.w3.org/2000/svg">
<path d="M3.29695 0.333008C1.65549 0.333008 0.333984 1.65452 0.333984 3.29597V13.6663H10.7044C12.3458 13.6663 13.6673 12.3448 13.6673 10.7034V3.29597C13.6673 1.65452 12.3458 0.333008 10.7044 0.333008H3.29695ZM7.00065 2.55523C7.39356 2.55523 7.77044 2.71127 8.04822 2.98915C8.3261 3.26692 8.48213 3.6438 8.48213 4.03671C8.48213 4.42962 8.32609 4.8065 8.04822 5.08428C7.77044 5.36216 7.39356 5.51819 7.00065 5.51819C6.60774 5.51819 6.23086 5.36215 5.95309 5.08428C5.6752 4.8065 5.51917 4.42962 5.51917 4.03671C5.51917 3.6438 5.67521 3.26692 5.95309 2.98915C6.23086 2.71126 6.60774 2.55523 7.00065 2.55523ZM6.25991 6.25893H7.74139C8.15176 6.25893 8.48213 6.5893 8.48213 6.99967V10.7034C8.48213 11.1137 8.15176 11.4441 7.74139 11.4441H6.25991C5.84954 11.4441 5.51917 11.1137 5.51917 10.7034V6.99967C5.51917 6.5893 5.84954 6.25893 6.25991 6.25893Z" fill="#4D1C8C"/>
</svg>
