<svg width="41" height="40" viewBox="0 0 41 40" fill="none" xmlns="http://www.w3.org/2000/svg">
<path d="M19.3393 32.9999C18.9239 32.9999 18.5869 32.6567 18.5869 32.2337L18.59 28.7846C18.593 27.0423 18.5975 25.3018 18.5794 23.561C18.5749 23.138 18.9088 22.7917 19.3242 22.7871H19.3317C19.7425 22.7871 20.0795 23.1257 20.084 23.5457C20.1022 25.2926 20.0976 27.0392 20.0946 28.7876L20.0916 32.2338C20.0913 32.6568 19.7543 33 19.3393 33L19.3393 32.9999Z" fill="url(#paint0_linear_330_3758)" stroke="url(#paint1_linear_330_3758)" stroke-width="0.5"/>
<path d="M10.288 29.1721C6.68034 29.1721 3.51795 26.4016 2.77003 22.5861C1.8749 18.0244 3.20776 13.7615 6.73134 9.91586C8.38632 8.10766 10.4969 7.13004 13.008 7.0077L13.2621 7C15.1231 7 16.7316 7.99916 17.5604 9.67215C18.2719 11.1064 18.3172 12.6401 17.6899 13.9917C17.1212 15.2158 16.0409 16.169 14.66 16.6975C15.5926 18.7814 15.3249 20.4332 13.8296 21.7829C13.9167 21.8381 14.0011 21.8948 14.0852 21.9546C15.215 22.7621 15.847 23.9097 15.8213 25.1033C15.7956 26.2526 15.1519 27.3236 14.0505 28.0407C13.1236 28.6443 11.9834 29.0461 10.9195 29.1425C10.7092 29.1627 10.4999 29.1717 10.2879 29.1717L10.288 29.1721ZM13.2622 8.53221L13.0817 8.53683C10.9756 8.64097 9.20777 9.45751 7.82984 10.9607C4.6133 14.4743 3.43963 18.1797 4.2461 22.2873C4.85384 25.3887 7.39488 27.6396 10.2895 27.6396C10.455 27.6396 10.6219 27.6319 10.7889 27.6165C11.6072 27.5429 12.5235 27.2182 13.2428 26.7523C13.9229 26.308 14.3065 25.7104 14.3201 25.0713C14.3352 24.3988 13.935 23.7184 13.2232 23.2095C13.0141 23.0594 12.787 22.9337 12.5356 22.7942L12.0752 22.5325C11.848 22.3976 11.7052 22.1511 11.7007 21.8812C11.6962 21.6116 11.8316 21.3602 12.0558 21.2178C13.971 20.0027 14.1906 18.8412 12.9224 16.6117C12.802 16.3988 12.7884 16.1428 12.8849 15.9191C12.9811 15.6954 13.1768 15.5315 13.4116 15.4794C14.7777 15.1713 15.8413 14.39 16.3302 13.3372C16.7558 12.4209 16.7168 11.3651 16.2188 10.3646C15.6499 9.21693 14.5442 8.53207 13.2623 8.53207L13.2622 8.53221Z" fill="url(#paint2_linear_330_3758)" stroke="url(#paint3_linear_330_3758)" stroke-width="0.5"/>
<path d="M19.3314 24.3199C18.9207 24.3199 18.5836 23.9813 18.5791 23.5614C18.5625 21.8758 17.6856 21.0223 15.8983 20.9487C15.4845 20.9302 15.1611 20.5749 15.1777 20.1504C15.1974 19.729 15.587 19.4288 15.9615 19.4165C18.5582 19.5237 20.0611 21.0285 20.0852 23.546C20.0898 23.969 19.7558 24.3153 19.3405 24.3199H19.3314H19.3314Z" fill="url(#paint4_linear_330_3758)" stroke="url(#paint5_linear_330_3758)" stroke-width="0.5"/>
<path d="M21.6637 33C21.2484 33 20.9114 32.6568 20.9114 32.2338L20.9083 28.9608C20.9038 27.1557 20.8993 25.3508 20.9189 23.5457C20.9235 23.1257 21.2604 22.7871 21.6712 22.7871H21.6788C22.0941 22.7917 22.4281 23.138 22.4236 23.561C22.4039 25.36 22.4084 27.1603 22.413 28.9577L22.416 32.2338C22.416 32.6568 22.079 33 21.6637 33H21.6637Z" fill="url(#paint6_linear_330_3758)" stroke="url(#paint7_linear_330_3758)" stroke-width="0.5"/>
<path d="M30.7128 29.1722C30.5022 29.1722 30.2914 29.1629 30.0779 29.1432C29.0157 29.0467 27.8753 28.6453 26.9485 28.0414C25.8486 27.3242 25.2034 26.2533 25.1776 25.104C25.1519 23.912 25.7839 22.7643 26.9122 21.9553C26.9966 21.8955 27.0807 21.8388 27.1693 21.7837C25.6741 20.4323 25.406 18.7818 26.3389 16.6982C24.9597 16.1695 23.8795 15.2163 23.3108 13.9936C22.6834 12.6407 22.7285 11.1067 23.4403 9.6741C24.2707 8.00085 25.8775 7.00195 27.737 7.00195L27.9912 7.00965C30.502 7.13227 32.6143 8.11138 34.2693 9.91781C37.7914 13.7654 39.1242 18.028 38.2306 22.588C37.4813 26.402 34.3204 29.1721 30.7127 29.1721L30.7128 29.1722ZM27.7386 8.53229C26.4568 8.53229 25.3524 9.21722 24.7837 10.3633C24.2858 11.364 24.2468 12.4212 24.6724 13.3359C25.1613 14.3903 26.2249 15.1701 27.591 15.4781C27.8242 15.5302 28.0197 15.6957 28.1176 15.9178C28.2123 16.1415 28.2005 16.3975 28.0801 16.6104C26.8117 18.8398 27.0316 20.0014 28.9467 21.2165C29.1709 21.3592 29.3064 21.6103 29.3019 21.8799C29.2973 22.1495 29.1545 22.3963 28.9274 22.5312L28.4685 22.7931C28.2171 22.9342 27.9899 23.0597 27.7793 23.2084C27.0678 23.7171 26.6691 24.3959 26.6825 25.0703C26.6961 25.7093 27.0796 26.3067 27.7597 26.7513C28.4787 27.2187 29.395 27.5434 30.212 27.6155C33.3233 27.899 36.1109 25.5654 36.7564 22.2847C37.5613 18.1781 36.3879 14.4734 33.1714 10.9581C31.7932 9.45487 30.0256 8.63814 27.9193 8.53399L27.7386 8.53229Z" fill="url(#paint8_linear_330_3758)" stroke="url(#paint9_linear_330_3758)" stroke-width="0.5"/>
<path d="M21.6707 24.3199H21.6631C21.2478 24.3153 20.9139 23.969 20.9184 23.546C20.9441 21.027 22.4469 19.5237 25.0421 19.4165C25.4904 19.4273 25.8063 19.7292 25.8259 20.1504C25.8425 20.5734 25.5189 20.9302 25.1053 20.9487C23.3181 21.0223 22.4409 21.8758 22.4245 23.5614C22.4184 23.9813 22.0815 24.3199 21.6707 24.3199H21.6707Z" fill="url(#paint10_linear_330_3758)" stroke="url(#paint11_linear_330_3758)" stroke-width="0.5"/>
<defs>
<linearGradient id="paint0_linear_330_3758" x1="18.4145" y1="33" x2="20.3078" y2="32.9794" gradientUnits="userSpaceOnUse">
<stop stop-color="#6B4DE0"/>
<stop offset="0.544792" stop-color="#9C42E3"/>
<stop offset="1" stop-color="#C339E5"/>
</linearGradient>
<linearGradient id="paint1_linear_330_3758" x1="18.4145" y1="33" x2="20.3078" y2="32.9794" gradientUnits="userSpaceOnUse">
<stop stop-color="#6B4DE0"/>
<stop offset="0.544792" stop-color="#9C42E3"/>
<stop offset="1" stop-color="#C339E5"/>
</linearGradient>
<linearGradient id="paint2_linear_330_3758" x1="0.802875" y1="29.1721" x2="20.246" y2="28.1705" gradientUnits="userSpaceOnUse">
<stop stop-color="#6B4DE0"/>
<stop offset="0.544792" stop-color="#9C42E3"/>
<stop offset="1" stop-color="#C339E5"/>
</linearGradient>
<linearGradient id="paint3_linear_330_3758" x1="0.802875" y1="29.1721" x2="20.246" y2="28.1705" gradientUnits="userSpaceOnUse">
<stop stop-color="#6B4DE0"/>
<stop offset="0.544792" stop-color="#9C42E3"/>
<stop offset="1" stop-color="#C339E5"/>
</linearGradient>
<linearGradient id="paint4_linear_330_3758" x1="14.6442" y1="24.3199" x2="20.7336" y2="23.8745" gradientUnits="userSpaceOnUse">
<stop stop-color="#6B4DE0"/>
<stop offset="0.544792" stop-color="#9C42E3"/>
<stop offset="1" stop-color="#C339E5"/>
</linearGradient>
<linearGradient id="paint5_linear_330_3758" x1="14.6442" y1="24.3199" x2="20.7336" y2="23.8745" gradientUnits="userSpaceOnUse">
<stop stop-color="#6B4DE0"/>
<stop offset="0.544792" stop-color="#9C42E3"/>
<stop offset="1" stop-color="#C339E5"/>
</linearGradient>
<linearGradient id="paint6_linear_330_3758" x1="20.7395" y1="33" x2="22.6341" y2="32.9794" gradientUnits="userSpaceOnUse">
<stop stop-color="#6B4DE0"/>
<stop offset="0.544792" stop-color="#9C42E3"/>
<stop offset="1" stop-color="#C339E5"/>
</linearGradient>
<linearGradient id="paint7_linear_330_3758" x1="20.7395" y1="33" x2="22.6341" y2="32.9794" gradientUnits="userSpaceOnUse">
<stop stop-color="#6B4DE0"/>
<stop offset="0.544792" stop-color="#9C42E3"/>
<stop offset="1" stop-color="#C339E5"/>
</linearGradient>
<linearGradient id="paint8_linear_330_3758" x1="21.1742" y1="29.1722" x2="40.6165" y2="28.1706" gradientUnits="userSpaceOnUse">
<stop stop-color="#6B4DE0"/>
<stop offset="0.544792" stop-color="#9C42E3"/>
<stop offset="1" stop-color="#C339E5"/>
</linearGradient>
<linearGradient id="paint9_linear_330_3758" x1="21.1742" y1="29.1722" x2="40.6165" y2="28.1706" gradientUnits="userSpaceOnUse">
<stop stop-color="#6B4DE0"/>
<stop offset="0.544792" stop-color="#9C42E3"/>
<stop offset="1" stop-color="#C339E5"/>
</linearGradient>
<linearGradient id="paint10_linear_330_3758" x1="20.3854" y1="24.3199" x2="26.4748" y2="23.8745" gradientUnits="userSpaceOnUse">
<stop stop-color="#6B4DE0"/>
<stop offset="0.544792" stop-color="#9C42E3"/>
<stop offset="1" stop-color="#C339E5"/>
</linearGradient>
<linearGradient id="paint11_linear_330_3758" x1="20.3854" y1="24.3199" x2="26.4748" y2="23.8745" gradientUnits="userSpaceOnUse">
<stop stop-color="#6B4DE0"/>
<stop offset="0.544792" stop-color="#9C42E3"/>
<stop offset="1" stop-color="#C339E5"/>
</linearGradient>
</defs>
</svg>
