<svg width="40" height="40" viewBox="0 0 40 40" fill="none" xmlns="http://www.w3.org/2000/svg">
<path d="M34.9965 22.2201C35.4385 22.2201 35.8625 22.0445 36.175 21.7321C36.4874 21.4196 36.663 20.9955 36.663 20.5537C36.663 20.1118 36.4874 19.6877 36.175 19.3753C35.8625 19.0628 35.4384 18.8872 34.9965 18.8872C34.5547 18.8872 34.1305 19.0628 33.8181 19.3753C33.5057 19.6877 33.3301 20.1118 33.3301 20.5537C33.3306 20.9956 33.5064 21.4192 33.8186 21.7316C34.1311 22.0439 34.5547 22.2197 34.9966 22.2202L34.9965 22.2201ZM34.9965 19.9981C35.2212 19.9981 35.4238 20.1335 35.5096 20.3411C35.5957 20.5487 35.5483 20.7875 35.3894 20.9464C35.2304 21.1054 34.9916 21.1528 34.784 21.0667C34.5764 20.9809 34.441 20.7783 34.441 20.5536C34.4413 20.2469 34.6898 19.9984 34.9965 19.9981Z" fill="#9E62B3"/>
<path d="M30.5526 18.8871C30.9945 18.8871 31.4186 18.7115 31.731 18.3991C32.0434 18.0866 32.219 17.6625 32.219 17.2207C32.219 16.7788 32.0435 16.3547 31.731 16.0422C31.4185 15.7298 30.9944 15.5542 30.5526 15.5542C30.1107 15.5542 29.6866 15.7298 29.3742 16.0422C29.0617 16.3547 28.8861 16.7788 28.8861 17.2207C28.8866 17.6626 29.0624 18.0862 29.3746 18.3986C29.6871 18.7108 30.1107 18.8867 30.5526 18.8872L30.5526 18.8871ZM30.5526 16.6651C30.7772 16.6651 30.9799 16.8005 31.0657 17.0081C31.1517 17.2157 31.1043 17.4545 30.9454 17.6134C30.7864 17.7724 30.5476 17.8198 30.34 17.7337C30.1325 17.6479 29.9971 17.4453 29.9971 17.2206C29.9973 16.9139 30.2458 16.6654 30.5526 16.6651Z" fill="#9E62B3"/>
<path d="M31.1081 21.6649C31.1081 21.9716 30.8593 22.2204 30.5526 22.2204C30.2458 22.2204 29.9971 21.9716 29.9971 21.6649C29.9971 21.3581 30.2458 21.1094 30.5526 21.1094C30.8593 21.1094 31.1081 21.3581 31.1081 21.6649Z" fill="#9E62B3"/>
<path d="M35.552 16.1097C35.552 16.4165 35.3033 16.6652 34.9965 16.6652C34.6898 16.6652 34.441 16.4165 34.441 16.1097C34.441 15.8029 34.6898 15.5542 34.9965 15.5542C35.3033 15.5542 35.552 15.8029 35.552 16.1097Z" fill="#9E62B3"/>
<path d="M35.4923 29.9973H35.5521C35.6994 29.9973 35.8408 29.9387 35.9449 29.8346C36.0491 29.7304 36.1076 29.5891 36.1076 29.4418V26.1088C36.1076 25.9615 36.0491 25.8201 35.9449 25.716C35.8408 25.6118 35.6994 25.5533 35.5521 25.5533H34.4411V24.4423H34.9966C35.3034 24.4423 35.5521 24.1936 35.5521 23.8868C35.5521 23.58 35.3034 23.3313 34.9966 23.3313H30.5526C30.2459 23.3313 29.9971 23.58 29.9971 23.8868C29.9971 24.1936 30.2459 24.4423 30.5526 24.4423H31.1081V25.9791C30.9001 26.1653 30.7419 26.4009 30.6481 26.6643H27.5341L24.4422 21.5111V18.3318C24.4414 17.6918 24.22 17.0715 23.8153 16.5758C23.4105 16.0799 22.8471 15.7388 22.2202 15.6099V10.5549C22.2202 7.97478 20.8438 5.59091 18.6095 4.30082C16.3751 3.01105 13.6224 3.01105 11.388 4.30082C9.15365 5.59084 7.77729 7.97478 7.77729 10.5549V15.6099C7.15037 15.7389 6.58694 16.0798 6.18222 16.5758C5.7775 17.0716 5.55604 17.6918 5.5553 18.3318V21.6222L3.33979 36.0232C3.31524 36.1834 3.36186 36.3463 3.46726 36.4693C3.5729 36.5923 3.7269 36.663 3.88884 36.663H21.6647C21.812 36.663 21.9534 36.6044 22.0575 36.5003C22.1617 36.3961 22.2202 36.2548 22.2202 36.1075V29.5729L23.39 31.9122C23.484 32.1005 23.6764 32.2192 23.8867 32.2192H28.9266C28.7322 33.5576 29.247 34.901 30.2864 35.7665C31.3257 36.632 32.7399 36.8951 34.0211 36.4616C35.3022 36.0281 36.2661 34.96 36.5662 33.6412C36.8663 32.3224 36.4596 30.9426 35.4924 29.9973H35.4923ZM34.9966 28.8863H32.2191C31.9124 28.886 31.6639 28.6375 31.6636 28.3308V27.2198C31.6639 26.913 31.9124 26.6645 32.2191 26.6643H34.9966V28.8863ZM32.2191 24.4423H33.3301V25.5533H32.2191V24.4423ZM23.3312 18.3318V21.1093H17.2207V19.4756C18.7585 18.7108 19.7971 17.2114 19.9729 15.5031C20.3851 15.423 20.7737 15.2501 21.1092 14.9974V16.1099C21.1092 16.2572 21.1677 16.3985 21.2719 16.5027C21.376 16.6068 21.5174 16.6654 21.6647 16.6654C22.1066 16.6659 22.5302 16.8417 22.8424 17.1541C23.1549 17.4664 23.3307 17.8899 23.3312 18.3319L23.3312 18.3318ZM11.9991 22.8869L11.1103 22.2203H12.9891L14.4432 25.129V27.7753L12.2213 24.8125V23.3313C12.2213 23.1565 12.1389 22.9918 11.9991 22.8869ZM11.1103 11.1104H18.8872V13.9727L16.4232 14.3834L16.0512 13.6394H16.051C15.957 13.4511 15.7646 13.3324 15.5543 13.3324H14.4433C14.233 13.3324 14.0405 13.4511 13.9463 13.6394L13.5743 14.3834L11.1103 13.9727L11.1103 11.1104ZM19.9982 11.2059C20.4339 11.3601 20.7861 11.6884 20.9703 12.1122C21.1545 12.536 21.1546 13.0177 20.9703 13.4415C20.786 13.8653 20.4339 14.1937 19.9982 14.3479V11.2059ZM12.9082 9.99938L17.0308 7.93808L18.4051 9.99938H12.9082ZM9.99953 14.3479C9.56381 14.1936 9.21168 13.8653 9.02744 13.4415C8.84321 13.0177 8.84319 12.5361 9.02744 12.1122C9.2117 11.6884 9.56384 11.3601 9.99953 11.2059V14.3479ZM13.7967 15.5469C14.0373 15.5868 14.2758 15.4653 14.3847 15.2473L14.7867 14.4434H15.211L15.613 15.2473C15.7223 15.4653 15.9607 15.5868 16.2012 15.5469L18.8849 15.0995C18.8502 16.4645 18.102 17.7111 16.9139 18.3836C15.7258 19.0562 14.2721 19.0562 13.084 18.3836C11.8958 17.7111 11.1477 16.4645 11.1129 15.0995L13.7967 15.5469ZM14.999 19.9983C15.373 19.9981 15.7455 19.9557 16.11 19.8723V21.5336L14.999 23.7556L13.888 21.5336V19.8723C14.2526 19.9557 14.625 19.9981 14.999 19.9983ZM15.5545 25.1289L17.0087 22.2203H18.8875L17.9987 22.8869C17.8588 22.9918 17.7765 23.1565 17.7765 23.3313V24.8125L15.5545 27.7753V25.1289ZM14.999 4.44417C16.6191 4.4459 18.1722 5.09045 19.3177 6.23591C20.4632 7.38138 21.1077 8.93454 21.1095 10.5546V10.5561C20.7137 10.2578 20.2447 10.0715 19.752 10.0167L17.6832 6.91338C17.5277 6.68052 17.2232 6.59943 16.9725 6.72491L10.417 10.0028V10.0026C9.86349 10.0296 9.33109 10.2226 8.88867 10.5561V10.5546C8.8904 8.93448 9.53495 7.38138 10.6804 6.23591C11.8259 5.09045 13.379 4.44594 14.9991 4.44416L14.999 4.44417ZM8.33304 16.6651C8.48035 16.6651 8.6217 16.6066 8.72586 16.5024C8.83001 16.3982 8.88854 16.2569 8.88854 16.1096V14.9971C9.22407 15.2498 9.61265 15.4227 10.0248 15.5028C10.2006 17.2112 11.2392 18.7105 12.777 19.4753V21.109H6.66655V18.3316C6.66705 17.8896 6.84287 17.4661 7.15534 17.1538C7.46756 16.8414 7.89113 16.6656 8.33305 16.6651L8.33304 16.6651ZM6.5877 22.2201H9.25904L11.1105 23.6088V24.9975C11.1105 25.1178 11.1495 25.2346 11.2216 25.3308L14.4435 29.6265V35.552H8.88854V27.2195C8.88854 26.9128 8.6398 26.664 8.33304 26.664C8.02628 26.664 7.77755 26.9128 7.77755 27.2195V35.552H4.53656L6.5877 22.2201ZM24.2303 31.108L22.1618 26.971C22.0467 26.7407 21.7881 26.6196 21.5374 26.6789C21.2866 26.7382 21.1096 26.9619 21.1096 27.2195V35.552H15.5546V29.6265L18.7765 25.3308C18.8487 25.2346 18.8876 25.1178 18.8876 24.9975V23.6088L20.7393 22.2201H23.5724L26.7434 27.5052C26.8438 27.6728 27.0249 27.775 27.22 27.775H30.553V28.3305C30.5527 28.7052 30.6795 29.0688 30.9123 29.3621C30.1929 29.7569 29.6158 30.3675 29.2625 31.108H24.2303ZM32.7748 35.552C32.0382 35.552 31.3317 35.2593 30.8106 34.7386C30.2899 34.2176 29.9973 33.511 29.9973 32.7745C29.9973 32.0379 30.2899 31.3315 30.8106 30.8104C31.3317 30.2896 32.0382 29.997 32.7748 29.997C33.5113 29.997 34.2178 30.2896 34.7389 30.8104C35.2596 31.3314 35.5522 32.0379 35.5522 32.7745C35.5515 33.5108 35.2586 34.2168 34.7378 34.7376C34.2171 35.2583 33.5111 35.5512 32.7748 35.552Z" fill="#9E62B3"/>
</svg>
