<svg width="41" height="40" viewBox="0 0 41 40" fill="none" xmlns="http://www.w3.org/2000/svg">
<path d="M8.44357 19.7133C8.28375 19.5543 8.02557 19.5543 7.86546 19.7133L5.56615 22.0126V22.0129C4.88253 22.6993 4.49912 23.6291 4.5 24.5981C4.50088 25.567 4.8857 26.496 5.57046 27.1816C6.25494 27.8672 7.18358 28.2532 8.15253 28.2552C9.12264 28.2543 10.0524 27.8684 10.7383 27.1822C11.4239 26.496 11.8091 25.5656 11.8091 24.5955C11.8094 23.6254 11.4242 22.695 10.7389 22.0085L8.44357 19.7133ZM10.1611 26.6075C9.6287 27.137 8.90733 27.4321 8.15651 27.4272C7.40429 27.4295 6.68201 27.133 6.14799 26.6032C5.61397 26.0733 5.31197 25.3534 5.30795 24.6012C5.30423 23.8489 5.59901 23.1259 6.12764 22.5906L8.13616 20.5821L10.1447 22.5906H10.1444C10.677 23.1215 10.9778 23.8418 10.9807 24.5937C10.9838 25.3456 10.6891 26.0682 10.161 26.6034L10.1611 26.6075ZM10.1857 24.7587V24.759C10.1857 25.3025 9.96951 25.8238 9.58524 26.208C9.20097 26.5926 8.67976 26.8085 8.13622 26.8085C7.90977 26.8085 7.72622 26.6249 7.72622 26.3985C7.72622 26.172 7.90977 25.9887 8.13622 25.9887C8.46216 25.9887 8.77495 25.8589 9.00569 25.6285C9.23614 25.3978 9.36566 25.085 9.36566 24.759C9.38567 24.5494 9.56123 24.389 9.77166 24.3879C9.98238 24.3868 10.1594 24.5454 10.1814 24.7547L10.1857 24.7587ZM34.9472 25.5784L28.143 18.7623L19.3963 10.0156L20.421 8.99086C20.5797 8.83104 20.5797 8.57286 20.421 8.41303L17.7935 5.78552C17.6337 5.62683 17.3755 5.62683 17.2157 5.78552L7.87467 15.1265C7.7157 15.2864 7.7157 15.5445 7.87467 15.7046L10.502 18.3319H10.5023C10.6621 18.4909 10.9203 18.4909 11.0801 18.3319L12.1048 17.3072L27.6805 32.8829C28.6483 33.8599 29.9663 34.4099 31.3416 34.4102C32.7169 34.4108 34.0355 33.8621 35.0042 32.8857C35.9728 31.9093 36.5112 30.5867 36.4998 29.2115C36.4887 27.8362 35.9283 26.5225 34.9436 25.5624L34.9472 25.5784ZM11.8128 16.4424L10.788 17.4671L8.73861 15.4177L17.5065 6.65415L19.5559 8.70358L18.5312 9.72829L11.8128 16.4424ZM12.686 16.7374L18.8343 10.5891L26.8592 18.639H14.5912L12.686 16.7374ZM34.3645 32.2765C33.5494 33.0925 32.4435 33.5511 31.2904 33.5511C30.137 33.5511 29.0311 33.0925 28.2163 32.2765L15.411 19.4595H27.679L34.3602 26.1407H34.3599C35.1739 26.9541 35.6314 28.0572 35.6323 29.208C35.6328 30.3585 35.1768 31.4621 34.3643 32.2767L34.3645 32.2765ZM27.9827 22.9392C28.2108 23.1676 28.2789 23.5113 28.1551 23.81C28.0313 24.1085 27.7399 24.3029 27.4169 24.3029C27.0938 24.3029 26.8024 24.1085 26.6786 23.81C26.5548 23.5112 26.6229 23.1676 26.8513 22.9392C27.0011 22.7888 27.2047 22.7044 27.4169 22.7044C27.629 22.7044 27.8326 22.7888 27.9827 22.9392ZM27.7039 27.038C27.8923 27.2267 27.9484 27.5103 27.846 27.7568C27.744 28.0033 27.5032 28.1637 27.2365 28.1637C26.9697 28.1637 26.7292 28.0033 26.6272 27.7568C26.5248 27.5103 26.5809 27.2267 26.7693 27.038C27.0243 26.7798 27.44 26.7761 27.6996 27.0297L27.7039 27.038ZM31.3602 26.3249L31.3599 26.3247C31.4928 26.4587 31.5317 26.6592 31.4594 26.8333C31.3868 27.0074 31.2167 27.1206 31.028 27.1206C30.8395 27.1206 30.6694 27.0074 30.5968 26.8333C30.5242 26.6592 30.5633 26.4587 30.696 26.3247C30.8761 26.1405 31.1712 26.1368 31.3559 26.3164L31.3602 26.3249ZM23.6748 24.353C23.8309 24.5171 23.8741 24.7582 23.7849 24.966C23.6957 25.1739 23.4913 25.3085 23.2651 25.3085C23.0389 25.3085 22.8345 25.1739 22.7453 24.966C22.6561 24.7582 22.6993 24.5171 22.8551 24.353C22.962 24.2409 23.1101 24.1772 23.2651 24.1772C23.4201 24.1772 23.5682 24.2409 23.6748 24.353ZM24.1872 20.6027C24.3433 20.7665 24.3865 21.0076 24.2973 21.2154C24.208 21.4233 24.0036 21.5582 23.7775 21.5582C23.5513 21.5582 23.3469 21.4233 23.2577 21.2154C23.1685 21.0076 23.2116 20.7665 23.3675 20.6027C23.4744 20.4903 23.6225 20.4269 23.7775 20.4269C23.9324 20.4269 24.0805 20.4904 24.1872 20.6027ZM31.0571 30.309C31.2292 30.4814 31.2807 30.7404 31.1872 30.9654C31.094 31.1904 30.8744 31.3371 30.6308 31.3371C30.3869 31.3371 30.1673 31.1904 30.0741 30.9654C29.9809 30.7404 30.0321 30.4814 30.2045 30.309C30.3174 30.1957 30.4707 30.1323 30.6308 30.1323C30.7906 30.1323 30.9438 30.1957 31.0571 30.309H31.0571Z" fill="url(#paint0_linear_330_2204)" stroke="url(#paint1_linear_330_2204)"/>
<defs>
<linearGradient id="paint0_linear_330_2204" x1="1.02525" y1="34.4102" x2="40.677" y2="31.1844" gradientUnits="userSpaceOnUse">
<stop stop-color="#6B4DE0"/>
<stop offset="0.544792" stop-color="#9C42E3"/>
<stop offset="1" stop-color="#C339E5"/>
</linearGradient>
<linearGradient id="paint1_linear_330_2204" x1="1.02525" y1="34.4102" x2="40.677" y2="31.1844" gradientUnits="userSpaceOnUse">
<stop stop-color="#6B4DE0"/>
<stop offset="0.544792" stop-color="#9C42E3"/>
<stop offset="1" stop-color="#C339E5"/>
</linearGradient>
</defs>
</svg>
