<svg width="41" height="40" viewBox="0 0 41 40" fill="none" xmlns="http://www.w3.org/2000/svg">
<path d="M6.56775 36.6668C6.54776 36.6668 6.52776 36.6668 6.5073 36.6663C5.67278 36.6524 4.98784 35.593 4.87903 34.1475C4.81625 33.3218 4.65442 32.5218 4.48352 31.674C4.33076 30.9174 4.17288 30.1345 4.0929 29.3351C3.74227 25.8251 3.55509 21.6756 4.82742 17.5107C4.89903 17.2757 4.97577 17.0408 5.05691 16.8069C5.57914 15.2975 6.15971 14.1514 6.88471 13.2004C8.76298 10.7348 12.0107 9.65502 16.8133 9.90937C18.4983 9.99772 21.1843 10.3644 22.8002 10.7276C24.2962 11.0631 25.848 11.1826 27.4123 11.0815C29.7024 10.9331 32.3184 10.276 33.7742 9.48313C34.6259 9.01973 35.6397 9.14598 36.3563 9.80656C37.0569 10.452 37.2624 11.4288 36.879 12.295C36.3691 13.4477 35.2846 14.8526 33.6547 16.4704C33.2008 16.9215 32.6074 17.5205 32.0452 18.1487C30.5453 19.8266 25.1024 25.5802 18.0345 29.1779C16.6129 29.9012 15.1818 30.3995 13.7802 30.6578C12.3358 30.9238 10.3764 31.7427 9.24031 34.1283C9.20707 34.1978 9.18149 34.3006 9.14638 34.4194C8.94967 35.0932 8.49025 36.6665 6.56805 36.6665L6.56775 36.6668ZM5.88995 17.8352C4.67507 21.8124 4.85877 25.8245 5.19894 29.2245C5.27335 29.969 5.42565 30.724 5.57282 31.4546C5.74279 32.2979 5.91904 33.1696 5.9867 34.0641C6.05785 35.0034 6.41569 35.5073 6.55287 35.5596C7.57061 35.5573 7.83728 34.9386 8.08001 34.1074C8.13117 33.9318 8.17558 33.7802 8.23719 33.6502C9.64481 30.6931 12.1883 29.8214 13.5787 29.5647C14.8747 29.3252 16.2047 28.862 17.5308 28.1875C24.4266 24.6775 29.7505 19.0494 31.2177 17.4084C31.7995 16.7585 32.4077 16.1444 32.8728 15.6829C34.4039 14.1629 35.41 12.8718 35.8638 11.8464C36.0917 11.3321 35.8789 10.8779 35.6043 10.6248C35.3165 10.3597 34.8249 10.1777 34.306 10.4604C32.4494 11.4709 29.5423 12.0583 27.4846 12.1915C25.814 12.2982 24.1564 12.1715 22.5574 11.8127C20.9914 11.4611 18.3886 11.1054 16.7552 11.0198C12.2842 10.7838 9.42961 11.6932 7.76889 13.8749C7.11782 14.7294 6.59003 15.7771 6.10782 17.1715C6.03016 17.3915 5.95809 17.6131 5.89019 17.8353L5.88995 17.8352Z" fill="url(#paint0_linear_330_2188)" stroke="url(#paint1_linear_330_2188)" stroke-width="0.5"/>
<path d="M21.5165 9.44404C21.2098 9.44404 20.961 9.19525 20.961 8.88857C20.961 7.35702 19.715 6.11095 18.1834 6.11095C17.8767 6.11095 17.6279 5.86216 17.6279 5.55548C17.6279 5.24879 17.8767 5 18.1834 5C20.3279 5 22.0722 6.74434 22.0722 8.88881C22.0722 9.19526 21.8232 9.44405 21.5165 9.44405L21.5165 9.44404Z" fill="url(#paint2_linear_330_2188)" stroke="url(#paint3_linear_330_2188)" stroke-width="0.5"/>
<path d="M23.7386 9.44404C23.4319 9.44404 23.1831 9.19525 23.1831 8.88857C23.1831 8.58188 23.4319 8.33309 23.7386 8.33309C25.2701 8.33309 26.5162 7.08702 26.5162 5.55548C26.5162 5.24879 26.765 5 27.0717 5C27.3784 5 27.6271 5.24879 27.6271 5.55548C27.6276 7.6997 25.8826 9.44404 23.7386 9.44404Z" fill="url(#paint4_linear_330_2188)" stroke="url(#paint5_linear_330_2188)" stroke-width="0.5"/>
<path d="M23.738 25.5554C23.6069 25.5554 23.4746 25.5094 23.3692 25.4155C23.1397 25.2116 23.1193 24.8605 23.3232 24.6309C27.398 20.0467 24.5281 16.0554 24.4044 15.8875C24.2221 15.6415 24.2728 15.2937 24.5183 15.1109C24.7639 14.9277 25.1105 14.9777 25.2945 15.2225C25.3305 15.2702 28.8461 20.0914 24.154 25.3695C24.0435 25.4925 23.8915 25.5553 23.738 25.5553L23.738 25.5554Z" fill="url(#paint6_linear_330_2188)" stroke="url(#paint7_linear_330_2188)" stroke-width="0.5"/>
<path d="M23.7385 12.0228C23.7097 12.0228 23.6813 12.0205 23.6525 12.0161C23.2858 11.9584 22.9198 11.8933 22.5564 11.8117C22.2202 11.7361 21.8303 11.6612 21.4192 11.5885C21.1542 11.5417 20.9609 11.3106 20.9609 11.0418V5.00016C20.9609 4.08123 21.7087 3.3335 22.6276 3.3335C23.5465 3.3335 24.2943 4.08123 24.2943 5.00016V11.4674C24.2943 11.6297 24.2231 11.7841 24.0999 11.8897C23.998 11.9762 23.8697 12.0229 23.7386 12.0229L23.7385 12.0228ZM22.8003 10.7277C22.9275 10.7561 23.0554 10.7828 23.183 10.8077V5.00018C23.183 4.69396 22.9342 4.4447 22.6276 4.4447C22.3209 4.4447 22.0721 4.69419 22.0721 5.00018V10.5784C22.3313 10.6273 22.5769 10.6773 22.8003 10.7277L22.8003 10.7277Z" fill="url(#paint8_linear_330_2188)" stroke="url(#paint9_linear_330_2188)" stroke-width="0.2"/>
<path d="M19.8499 36.6665C18.931 36.6665 18.1832 35.9187 18.1832 34.9998L18.1835 28.1718C18.1835 27.9686 18.2939 27.7819 18.4722 27.6847C19.1928 27.2908 19.9301 26.8547 20.6633 26.3898C20.8344 26.281 21.0511 26.2743 21.2287 26.3722C21.4066 26.4701 21.5166 26.6565 21.5166 26.8588V34.9999C21.5166 35.9188 20.7688 36.6666 19.8499 36.6666L19.8499 36.6665ZM19.2944 28.4992V34.9998C19.2944 35.306 19.5432 35.5553 19.8499 35.5553C20.1566 35.5553 20.4054 35.3058 20.4054 34.9998L20.4056 27.8546C20.0333 28.0785 19.6623 28.294 19.2944 28.4996L19.2944 28.4992Z" fill="url(#paint10_linear_330_2188)" stroke="url(#paint11_linear_330_2188)" stroke-width="0.2"/>
<path d="M11.4755 11.4484C11.296 11.4484 11.1239 11.3612 11.0183 11.2085C10.4959 10.4519 9.64442 10.0003 8.73948 10.0003H8.184C7.26507 10.0003 6.51733 9.25259 6.51733 8.33366C6.51733 7.41473 7.26507 6.66699 8.184 6.66699H8.73948C11.1327 6.66699 13.3177 8.08021 14.3054 10.2679C14.3798 10.4323 14.3694 10.6223 14.2782 10.7774C14.1871 10.9329 14.0259 11.0345 13.8467 11.0501C13.0417 11.1189 12.2935 11.2468 11.6222 11.4289C11.5731 11.4424 11.5243 11.4484 11.4755 11.4484L11.4755 11.4484ZM8.18374 7.77796C7.87706 7.77796 7.62827 8.02744 7.62827 8.33343C7.62827 8.63965 7.87706 8.88891 8.18374 8.88891H8.73922C9.87856 8.88891 10.9565 9.39719 11.6931 10.2644C12.0814 10.1721 12.4897 10.0961 12.9143 10.0366C11.9993 8.64402 10.4327 7.77795 8.73946 7.77795L8.18374 7.77796Z" fill="url(#paint12_linear_330_2188)" stroke="url(#paint13_linear_330_2188)" stroke-width="0.2"/>
<path d="M29.8498 29.4441H28.7387C26.1315 29.4441 23.8098 27.7853 22.9628 25.3158C22.8839 25.0858 22.9639 24.8308 23.1599 24.6875C23.7933 24.2236 24.4367 23.7282 25.0721 23.2143C25.231 23.086 25.4488 23.0548 25.6372 23.1343C25.826 23.2138 25.9555 23.3903 25.9743 23.5949C26.1082 25.03 27.2966 26.1114 28.7386 26.1114H29.8498C30.7688 26.1114 31.5165 26.8592 31.5165 27.7781C31.5165 28.6968 30.7688 29.444 29.8498 29.444L29.8498 29.4441ZM24.1588 25.3302C24.9478 27.1413 26.7404 28.3329 28.7387 28.3329H29.8498C30.1565 28.3329 30.4053 28.0834 30.4053 27.7774C30.4053 27.4712 30.1565 27.2219 29.8498 27.2219H28.7387C27.0476 27.2219 25.6053 26.1591 25.0715 24.6336C24.7671 24.8714 24.4621 25.1042 24.1588 25.3302Z" fill="url(#paint14_linear_330_2188)" stroke="url(#paint15_linear_330_2188)" stroke-width="0.2"/>
<defs>
<linearGradient id="paint0_linear_330_2188" x1="0.224393" y1="36.6668" x2="41.3587" y2="33.0286" gradientUnits="userSpaceOnUse">
<stop stop-color="#6B4DE0"/>
<stop offset="0.544792" stop-color="#9C42E3"/>
<stop offset="1" stop-color="#C339E5"/>
</linearGradient>
<linearGradient id="paint1_linear_330_2188" x1="0.224393" y1="36.6668" x2="41.3587" y2="33.0286" gradientUnits="userSpaceOnUse">
<stop stop-color="#6B4DE0"/>
<stop offset="0.544792" stop-color="#9C42E3"/>
<stop offset="1" stop-color="#C339E5"/>
</linearGradient>
<linearGradient id="paint2_linear_330_2188" x1="17.1453" y1="9.44405" x2="22.6593" y2="9.0411" gradientUnits="userSpaceOnUse">
<stop stop-color="#6B4DE0"/>
<stop offset="0.544792" stop-color="#9C42E3"/>
<stop offset="1" stop-color="#C339E5"/>
</linearGradient>
<linearGradient id="paint3_linear_330_2188" x1="17.1453" y1="9.44405" x2="22.6593" y2="9.0411" gradientUnits="userSpaceOnUse">
<stop stop-color="#6B4DE0"/>
<stop offset="0.544792" stop-color="#9C42E3"/>
<stop offset="1" stop-color="#C339E5"/>
</linearGradient>
<linearGradient id="paint4_linear_330_2188" x1="22.7005" y1="9.44404" x2="28.2142" y2="9.04113" gradientUnits="userSpaceOnUse">
<stop stop-color="#6B4DE0"/>
<stop offset="0.544792" stop-color="#9C42E3"/>
<stop offset="1" stop-color="#C339E5"/>
</linearGradient>
<linearGradient id="paint5_linear_330_2188" x1="22.7005" y1="9.44404" x2="28.2142" y2="9.04113" gradientUnits="userSpaceOnUse">
<stop stop-color="#6B4DE0"/>
<stop offset="0.544792" stop-color="#9C42E3"/>
<stop offset="1" stop-color="#C339E5"/>
</linearGradient>
<linearGradient id="paint6_linear_330_2188" x1="22.8125" y1="25.5554" x2="27.0635" y2="25.4551" gradientUnits="userSpaceOnUse">
<stop stop-color="#6B4DE0"/>
<stop offset="0.544792" stop-color="#9C42E3"/>
<stop offset="1" stop-color="#C339E5"/>
</linearGradient>
<linearGradient id="paint7_linear_330_2188" x1="22.8125" y1="25.5554" x2="27.0635" y2="25.4551" gradientUnits="userSpaceOnUse">
<stop stop-color="#6B4DE0"/>
<stop offset="0.544792" stop-color="#9C42E3"/>
<stop offset="1" stop-color="#C339E5"/>
</linearGradient>
<linearGradient id="paint8_linear_330_2188" x1="20.599" y1="12.0229" x2="24.7534" y2="11.9064" gradientUnits="userSpaceOnUse">
<stop stop-color="#6B4DE0"/>
<stop offset="0.544792" stop-color="#9C42E3"/>
<stop offset="1" stop-color="#C339E5"/>
</linearGradient>
<linearGradient id="paint9_linear_330_2188" x1="20.599" y1="12.0229" x2="24.7534" y2="11.9064" gradientUnits="userSpaceOnUse">
<stop stop-color="#6B4DE0"/>
<stop offset="0.544792" stop-color="#9C42E3"/>
<stop offset="1" stop-color="#C339E5"/>
</linearGradient>
<linearGradient id="paint10_linear_330_2188" x1="17.8213" y1="36.6666" x2="21.9767" y2="36.5689" gradientUnits="userSpaceOnUse">
<stop stop-color="#6B4DE0"/>
<stop offset="0.544792" stop-color="#9C42E3"/>
<stop offset="1" stop-color="#C339E5"/>
</linearGradient>
<linearGradient id="paint11_linear_330_2188" x1="17.8213" y1="36.6666" x2="21.9767" y2="36.5689" gradientUnits="userSpaceOnUse">
<stop stop-color="#6B4DE0"/>
<stop offset="0.544792" stop-color="#9C42E3"/>
<stop offset="1" stop-color="#C339E5"/>
</linearGradient>
<linearGradient id="paint12_linear_330_2188" x1="5.66631" y1="11.4484" x2="15.3037" y2="10.2941" gradientUnits="userSpaceOnUse">
<stop stop-color="#6B4DE0"/>
<stop offset="0.544792" stop-color="#9C42E3"/>
<stop offset="1" stop-color="#C339E5"/>
</linearGradient>
<linearGradient id="paint13_linear_330_2188" x1="5.66631" y1="11.4484" x2="15.3037" y2="10.2941" gradientUnits="userSpaceOnUse">
<stop stop-color="#6B4DE0"/>
<stop offset="0.544792" stop-color="#9C42E3"/>
<stop offset="1" stop-color="#C339E5"/>
</linearGradient>
<linearGradient id="paint14_linear_330_2188" x1="22.0007" y1="29.4441" x2="32.604" y2="28.3972" gradientUnits="userSpaceOnUse">
<stop stop-color="#6B4DE0"/>
<stop offset="0.544792" stop-color="#9C42E3"/>
<stop offset="1" stop-color="#C339E5"/>
</linearGradient>
<linearGradient id="paint15_linear_330_2188" x1="22.0007" y1="29.4441" x2="32.604" y2="28.3972" gradientUnits="userSpaceOnUse">
<stop stop-color="#6B4DE0"/>
<stop offset="0.544792" stop-color="#9C42E3"/>
<stop offset="1" stop-color="#C339E5"/>
</linearGradient>
</defs>
</svg>
