<svg width="40" height="40" viewBox="0 0 40 40" fill="none" xmlns="http://www.w3.org/2000/svg">
<path fill-rule="evenodd" clip-rule="evenodd" d="M31.5676 3.3335H9.37285C8.18105 3.3335 7.19447 4.32 7.19447 5.51187L7.19421 14.9301L7.19421 20.6854L7.19421 34.4885C7.19421 35.6802 8.18072 36.6668 9.37259 36.6668H17.6989H20.2237L31.5676 36.6668C32.7594 36.6668 33.746 35.6803 33.746 34.4884V5.51187C33.705 4.32008 32.7597 3.3335 31.5676 3.3335ZM31.5266 34.8995C31.7735 34.8995 31.9378 34.694 31.9378 34.4884L31.9789 34.4881V5.51159C31.9789 5.26473 31.7733 5.10045 31.5677 5.10045H9.37295C9.1261 5.10045 8.96182 5.30602 8.96182 5.51159V19.0653V24.1414V34.4881C8.96182 34.735 9.16739 34.8992 9.37295 34.8992L16.1891 34.8993L18.743 34.8994L31.5266 34.8995Z" fill="#9E62B3" stroke="#9E62B3" stroke-width="0.4"/>
<path d="M27.0465 24.1719H13.853C13.3598 24.1719 12.9487 24.583 12.9487 25.0761C12.9487 25.5692 13.3599 25.9803 13.853 25.9803L27.0465 25.98C27.5397 25.98 27.9508 25.5689 27.9508 25.0758C27.9508 24.5827 27.5396 24.1719 27.0465 24.1719V24.1719Z" fill="#9E62B3" stroke="#9E62B3" stroke-width="0.4"/>
<path d="M27.0465 29.5151H13.853C13.3598 29.5151 12.9487 29.9263 12.9487 30.4194C12.9487 30.9125 13.3599 31.3236 13.853 31.3236H27.0465C27.5397 31.3236 27.9508 30.9125 27.9508 30.4194C27.9508 29.9263 27.5396 29.5151 27.0465 29.5151Z" fill="#9E62B3" stroke="#9E62B3" stroke-width="0.4"/>
<path d="M27.0465 18.8696H13.853C13.3598 18.8696 12.9487 19.2808 12.9487 19.7739C12.9487 20.267 13.3599 20.6781 13.853 20.6781H27.0465C27.5397 20.6781 27.9508 20.267 27.9508 19.7739C27.9508 19.2395 27.5396 18.8696 27.0465 18.8696Z" fill="#9E62B3" stroke="#9E62B3" stroke-width="0.4"/>
<path d="M15.4148 15.4584H17.0177C17.2233 15.4584 17.3466 15.2941 17.3466 15.1295V12.5813C17.3466 12.3757 17.1823 12.2524 17.0177 12.2524H15.4148C15.2092 12.2524 15.0859 12.4167 15.0859 12.5813V15.1295C15.0859 15.2941 15.2502 15.4584 15.4148 15.4584Z" fill="#9E62B3" stroke="#9E62B3" stroke-width="0.4"/>
<path d="M19.4016 15.4582H21.0046C21.2101 15.4582 21.3334 15.294 21.3334 15.1294V10.7317C21.3334 10.5261 21.1691 10.4028 21.0046 10.4028H19.4016C19.196 10.4028 19.0728 10.5671 19.0728 10.7317V15.0884C19.0728 15.2939 19.237 15.4582 19.4016 15.4582V15.4582Z" fill="#9E62B3" stroke="#9E62B3" stroke-width="0.4"/>
<path d="M23.3884 15.4587H24.9914C25.1969 15.4587 25.3202 15.2944 25.3202 15.1298V8.96459C25.3202 8.80031 25.1559 8.63574 24.9914 8.63574H23.3884C23.1829 8.63574 23.0596 8.80002 23.0596 8.96459V15.1298C23.0596 15.2944 23.2239 15.4587 23.3884 15.4587Z" fill="#9E62B3" stroke="#9E62B3" stroke-width="0.4"/>
</svg>
