<svg width="22" height="20" viewBox="0 0 22 20" fill="none" xmlns="http://www.w3.org/2000/svg">
<path d="M5.23865 2.5293L12.4615 5.72796L12.1916 6.33753L4.96875 3.13887L5.23865 2.5293Z" fill="#9F9DA6" stroke="#9F9DA6" stroke-width="0.5"/>
<path d="M8.66667 17.7334L1 14.6V4.13338L8.66667 1L16.3333 4.5V9.7H15.6667V4.9L8.66667 1.73333L1.66667 4.59995V14.1333L8.66667 16.9999L11.6334 15.9331L11.8333 16.5665L8.66667 17.7334Z" fill="#9F9DA6" stroke="#9F9DA6" stroke-width="0.5"/>
<path d="M1.45457 4.05566L8.79695 7.05919L8.54453 7.67619L1.20215 4.67266L1.45457 4.05566Z" fill="#9F9DA6" stroke="#9F9DA6" stroke-width="0.5"/>
<path d="M8.99967 17.3672H8.33301V7.13382L15.8997 4.40039L16.0998 5.00049L8.99982 7.60039L8.99967 17.3672Z" fill="#9F9DA6" stroke="#9F9DA6" stroke-width="0.5"/>
<path d="M16 19.3672C13.2332 19.3672 11 17.1339 11 14.3672C11 11.6004 13.2332 9.36719 16 9.36719C18.7668 9.36719 21 11.6004 21 14.3672C21 17.1339 18.7668 19.3672 16 19.3672ZM16 10.0339C13.6001 10.0339 11.6667 11.9673 11.6667 14.3672C11.6667 16.7671 13.6001 18.7005 16 18.7005C18.3999 18.7005 20.3333 16.7671 20.3333 14.3672C20.3333 11.9673 18.3999 10.0339 16 10.0339Z" fill="#9F9DA6" stroke="#9F9DA6" stroke-width="0.5"/>
<path d="M15.4998 16.3331L13.7666 14.5997L14.2331 14.1331L15.4999 15.3997L18.1 12.7998L18.5665 13.2663L15.4998 16.3331Z" fill="#9F9DA6" stroke="#9F9DA6" stroke-width="0.5"/>
</svg>
