<svg width="40" height="40" viewBox="0 0 40 40" fill="none" xmlns="http://www.w3.org/2000/svg">
<path d="M20.058 3.34182C19.9588 3.3519 19.8616 3.37515 19.7686 3.41132C16.2203 4.8322 12.4685 6.24046 6.07765 6.4433C5.78907 6.45234 5.51549 6.57351 5.3145 6.7807C5.11376 6.98815 5.00138 7.26562 5.00138 7.55444C4.99828 8.7904 5.00138 15.7561 5.00138 16.8936C5.00164 23.2032 6.93304 27.7143 9.79267 30.8274C12.652 33.9399 16.3689 35.6393 19.8845 36.6252C20.0814 36.6807 20.2896 36.6807 20.4862 36.6252C24.0015 35.6393 27.7183 33.9399 30.578 30.8274C33.4374 27.7146 35.369 23.2038 35.3693 16.8936C35.3693 15.7561 35.3724 8.79054 35.3693 7.55444C35.3693 7.2656 35.2572 6.98814 35.0562 6.7807C34.8552 6.57351 34.5816 6.45235 34.293 6.4433C27.9028 6.24024 24.1509 4.83227 20.602 3.41132C20.4295 3.34312 20.2424 3.31909 20.0582 3.34182H20.058ZM20.1854 5.64471C23.4695 6.9486 27.3539 8.24369 33.1469 8.57259C33.1484 10.6427 33.1469 15.8754 33.1469 16.8933C33.1466 22.7595 31.4263 26.6227 28.9459 29.3224C26.5422 31.9389 23.3534 33.4534 20.1854 34.3798C17.017 33.4536 13.8282 31.939 11.4249 29.3224C8.94447 26.6224 7.22412 22.7596 7.22386 16.8933C7.22386 15.8751 7.22231 10.6425 7.22386 8.57259C13.0168 8.24371 16.901 6.9486 20.1854 5.64471ZM27.1641 13.6995V13.6998C26.8763 13.7171 26.6064 13.8457 26.4118 14.0584L17.6282 23.5133L13.9943 19.2777C13.8029 19.0522 13.5295 18.9121 13.2348 18.8886C12.9397 18.8651 12.6478 18.9602 12.4231 19.1527C12.1983 19.3449 12.0596 19.619 12.0374 19.9138C12.0151 20.2088 12.1113 20.5005 12.3048 20.7245L16.7488 25.909H16.7486C16.9545 26.1487 17.2526 26.2895 17.5683 26.296C17.8843 26.3027 18.1878 26.1746 18.4036 25.9439L28.0324 15.5743C28.2383 15.3578 28.3481 15.0677 28.3376 14.7693C28.327 14.4706 28.1965 14.189 27.9759 13.9878C27.7552 13.7865 27.4628 13.6827 27.1646 13.6995L27.1641 13.6995Z" fill="#9E62B3"/>
</svg>
