<svg width="14" height="18" viewBox="0 0 14 18" fill="none" xmlns="http://www.w3.org/2000/svg">
<path fill-rule="evenodd" clip-rule="evenodd" d="M10.0715 14.7207V1.66902C10.0715 1.29972 10.3379 1.0003 10.6719 1.0003C11.0035 1.0003 11.2724 1.29972 11.2724 1.66902V14.723L11.9505 13.97C12.1829 13.7121 12.5596 13.7122 12.7957 13.9744C13.0302 14.2348 13.0288 14.6584 12.7996 14.9129L11.0935 16.8071C10.9781 16.9354 10.8268 16.9999 10.6749 17L10.6703 16.998C10.5178 16.9977 10.3662 16.9337 10.2522 16.8071L8.54611 14.9129C8.31382 14.655 8.31392 14.2365 8.55003 13.9744C8.78454 13.714 9.1661 13.7156 9.3953 13.97L10.0715 14.7207ZM3.86299 3.27927V16.331C3.86299 16.7003 3.59652 16.9997 3.26259 16.9997C2.93098 16.9997 2.6621 16.7003 2.6621 16.331V3.27699L1.984 4.02997C1.7516 4.28789 1.37486 4.28778 1.13874 4.02562C0.904227 3.76524 0.905635 3.3416 1.13482 3.08712L2.84091 1.19285C2.9564 1.06462 3.10768 1.00011 3.25957 1L3.2642 1.00201C3.41668 1.00234 3.56825 1.06629 3.68225 1.19285L5.38834 3.08712C5.62064 3.34504 5.62054 3.76345 5.38442 4.02562C5.14991 4.28599 4.76836 4.28443 4.53916 4.02997L3.86299 3.27927Z" fill="#9F9DA6" stroke="#9F9DA6" stroke-width="0.5"/>
</svg>
