<svg width="41" height="40" viewBox="0 0 41 40" fill="none" xmlns="http://www.w3.org/2000/svg">
<path d="M17.3563 14.2558C17.4441 14.2558 17.5325 14.2488 17.6205 14.2343L19.845 13.8638C19.9893 13.8399 20.1356 13.8399 20.2798 13.8638L22.509 14.235C23.0254 14.3182 23.5524 14.1487 23.9189 13.7808C24.1861 13.5129 24.1854 13.0787 23.9172 12.8115C23.6492 12.5443 23.2151 12.545 22.9481 12.8132C22.8922 12.8691 22.8102 12.8952 22.7311 12.8823L20.5049 12.5118C20.2116 12.4628 19.914 12.463 19.62 12.5118L17.3965 12.8818C17.3164 12.8954 17.2325 12.8682 17.1766 12.8125C16.9089 12.5447 16.475 12.5443 16.2073 12.812C15.9396 13.0795 15.9393 13.5136 16.2068 13.7813C16.5125 14.087 16.928 14.2558 17.3563 14.2558L17.3563 14.2558Z" fill="url(#paint0_linear_330_2273)" stroke="url(#paint1_linear_330_2273)" stroke-width="0.5"/>
<path d="M22.4335 23.9731C22.1147 23.9731 21.8023 24.0334 21.5044 24.1519L20.0637 24.729L18.6209 24.1515C18.3238 24.0331 18.0114 23.9731 17.6927 23.9731C17.0249 23.9731 16.3966 24.2337 15.9244 24.7062C15.3435 25.2873 15.0848 26.1163 15.2319 26.9228L15.9923 31.1041C16.2086 32.2945 17.2439 33.1583 18.4539 33.1583H18.9975C19.3713 33.1583 19.733 33.077 20.0638 32.921C20.3942 33.077 20.7559 33.1583 21.1299 33.1583H21.6742C22.8842 33.1583 23.919 32.2942 24.1346 31.1041L24.8948 26.9236C25.0418 26.1159 24.7834 25.2871 24.203 24.7063C23.7302 24.2337 23.1017 23.9732 22.4336 23.9732L22.4335 23.9731ZM23.5456 26.6783L22.7854 30.8593C22.6879 31.3974 22.2201 31.7877 21.6736 31.7877H21.1294C20.8882 31.7877 20.6594 31.7136 20.4673 31.5738C20.3473 31.486 20.2055 31.4421 20.0638 31.4421C19.9222 31.4421 19.7807 31.4858 19.6605 31.5733C19.4678 31.7134 19.2386 31.7877 18.9972 31.7877H18.4536C17.9064 31.7877 17.4387 31.3971 17.3406 30.8588L16.5802 26.6771C16.5138 26.3126 16.6307 25.938 16.8936 25.6748C17.1071 25.4611 17.3908 25.3435 17.6925 25.3435C17.8369 25.3435 17.9784 25.3708 18.1125 25.4243L19.8089 26.1034C19.9724 26.1687 20.1548 26.1689 20.3186 26.1032L22.0131 25.4245C22.1476 25.371 22.2891 25.3435 22.4335 25.3435C22.7357 25.3435 23.0194 25.4611 23.2331 25.6748C23.4953 25.938 23.6122 26.3128 23.5455 26.6783L23.5456 26.6783Z" fill="url(#paint2_linear_330_2273)" stroke="url(#paint3_linear_330_2273)" stroke-width="0.5"/>
<path d="M19.5331 27.3551C19.5331 27.7313 19.2281 28.0364 18.8518 28.0364C18.4756 28.0364 18.1705 27.7313 18.1705 27.3551C18.1705 26.9789 18.4755 26.6738 18.8518 26.6738C19.228 26.6738 19.5331 26.9788 19.5331 27.3551Z" fill="url(#paint4_linear_330_2273)" stroke="url(#paint5_linear_330_2273)" stroke-width="0.5"/>
<path d="M21.9551 27.3551C21.9551 27.7313 21.65 28.0364 21.2738 28.0364C20.8976 28.0364 20.5925 27.7313 20.5925 27.3551C20.5925 26.9789 20.8975 26.6738 21.2738 26.6738C21.65 26.6738 21.9551 26.9788 21.9551 27.3551Z" fill="url(#paint6_linear_330_2273)" stroke="url(#paint7_linear_330_2273)" stroke-width="0.5"/>
<path d="M19.5331 29.7772C19.5331 30.1535 19.2281 30.4582 18.8518 30.4582C18.4758 30.4582 18.1708 30.1535 18.1708 29.7772C18.1708 29.401 18.4758 29.0962 18.8518 29.0962C19.228 29.0962 19.5331 29.401 19.5331 29.7772Z" fill="url(#paint8_linear_330_2273)" stroke="url(#paint9_linear_330_2273)" stroke-width="0.5"/>
<path d="M21.9551 29.7772C21.9551 30.1535 21.6503 30.4582 21.274 30.4582C20.898 30.4582 20.593 30.1535 20.593 29.7772C20.593 29.401 20.898 29.0962 21.274 29.0962C21.6503 29.0962 21.9551 29.401 21.9551 29.7772Z" fill="url(#paint10_linear_330_2273)" stroke="url(#paint11_linear_330_2273)" stroke-width="0.5"/>
<path d="M35.0755 33.4276L36.0632 32.4767C35.6404 32.0376 33.839 31.3893 31.1209 30.6987C28.5398 30.0423 27.8138 23.115 27.9618 18.8884C30.257 16.6883 32.6168 13.1503 33.6774 7.53827C33.7476 7.16657 33.5029 6.80775 33.1312 6.7375C32.7607 6.6677 32.4006 6.91176 32.3304 7.2837C31.2939 12.7679 28.8943 16.8384 25.1977 19.3822C22.723 21.0856 20.4593 21.4972 20.0032 21.5658C17.4331 21.1267 15.2294 19.97 13.4127 18.1134C13.3735 18.0565 13.3249 18.0075 13.2707 17.965C12.224 16.8619 11.3082 15.5228 10.5289 13.9478C8.88484 10.6257 8.49326 7.45334 8.48684 7.39887C8.44333 7.02287 8.10294 6.75255 7.72718 6.79722C7.35118 6.84073 7.08178 7.18111 7.12553 7.55687C7.14154 7.6948 7.53739 10.9751 9.2821 14.5182C10.0924 16.1638 11.061 17.5879 12.1713 18.7786C12.2875 23.1541 11.5444 30.0534 9.00557 30.699C6.28749 31.3896 4.48614 32.0376 4.06323 32.477L5.05095 33.4279C5.05095 33.4279 5.03972 33.4446 5.00267 33.4726C5.03064 33.4515 5.72958 32.946 9.34335 32.0276C13.0034 31.0968 13.5107 23.5328 13.5492 20.0753C15.3754 21.5791 17.5043 22.5479 19.8821 22.9361C19.9186 22.9419 19.9557 22.945 19.9925 22.945C20.0166 22.945 20.0405 22.9435 20.0647 22.9411C20.178 22.9294 22.8741 22.6237 25.9099 20.557C26.1274 20.409 26.3499 20.2479 26.5761 20.0758C26.5871 23.2615 27.0202 31.071 30.7836 32.0281C34.3976 32.9462 35.0965 33.4521 35.1245 33.473C35.087 33.4446 35.0755 33.4279 35.0755 33.4279L35.0755 33.4276Z" fill="url(#paint12_linear_330_2273)" stroke="url(#paint13_linear_330_2273)" stroke-width="0.5"/>
<defs>
<linearGradient id="paint0_linear_330_2273" x1="15.1254" y1="14.2558" x2="24.2347" y2="11.2232" gradientUnits="userSpaceOnUse">
<stop stop-color="#6B4DE0"/>
<stop offset="0.544792" stop-color="#9C42E3"/>
<stop offset="1" stop-color="#C339E5"/>
</linearGradient>
<linearGradient id="paint1_linear_330_2273" x1="15.1254" y1="14.2558" x2="24.2347" y2="11.2232" gradientUnits="userSpaceOnUse">
<stop stop-color="#6B4DE0"/>
<stop offset="0.544792" stop-color="#9C42E3"/>
<stop offset="1" stop-color="#C339E5"/>
</linearGradient>
<linearGradient id="paint2_linear_330_2273" x1="14.1334" y1="33.1583" x2="26.2144" y2="32.2218" gradientUnits="userSpaceOnUse">
<stop stop-color="#6B4DE0"/>
<stop offset="0.544792" stop-color="#9C42E3"/>
<stop offset="1" stop-color="#C339E5"/>
</linearGradient>
<linearGradient id="paint3_linear_330_2273" x1="14.1334" y1="33.1583" x2="26.2144" y2="32.2218" gradientUnits="userSpaceOnUse">
<stop stop-color="#6B4DE0"/>
<stop offset="0.544792" stop-color="#9C42E3"/>
<stop offset="1" stop-color="#C339E5"/>
</linearGradient>
<linearGradient id="paint4_linear_330_2273" x1="18.0226" y1="28.0364" x2="19.7131" y2="27.9128" gradientUnits="userSpaceOnUse">
<stop stop-color="#6B4DE0"/>
<stop offset="0.544792" stop-color="#9C42E3"/>
<stop offset="1" stop-color="#C339E5"/>
</linearGradient>
<linearGradient id="paint5_linear_330_2273" x1="18.0226" y1="28.0364" x2="19.7131" y2="27.9128" gradientUnits="userSpaceOnUse">
<stop stop-color="#6B4DE0"/>
<stop offset="0.544792" stop-color="#9C42E3"/>
<stop offset="1" stop-color="#C339E5"/>
</linearGradient>
<linearGradient id="paint6_linear_330_2273" x1="20.4446" y1="28.0364" x2="22.1351" y2="27.9128" gradientUnits="userSpaceOnUse">
<stop stop-color="#6B4DE0"/>
<stop offset="0.544792" stop-color="#9C42E3"/>
<stop offset="1" stop-color="#C339E5"/>
</linearGradient>
<linearGradient id="paint7_linear_330_2273" x1="20.4446" y1="28.0364" x2="22.1351" y2="27.9128" gradientUnits="userSpaceOnUse">
<stop stop-color="#6B4DE0"/>
<stop offset="0.544792" stop-color="#9C42E3"/>
<stop offset="1" stop-color="#C339E5"/>
</linearGradient>
<linearGradient id="paint8_linear_330_2273" x1="18.0229" y1="30.4582" x2="19.713" y2="30.3347" gradientUnits="userSpaceOnUse">
<stop stop-color="#6B4DE0"/>
<stop offset="0.544792" stop-color="#9C42E3"/>
<stop offset="1" stop-color="#C339E5"/>
</linearGradient>
<linearGradient id="paint9_linear_330_2273" x1="18.0229" y1="30.4582" x2="19.713" y2="30.3347" gradientUnits="userSpaceOnUse">
<stop stop-color="#6B4DE0"/>
<stop offset="0.544792" stop-color="#9C42E3"/>
<stop offset="1" stop-color="#C339E5"/>
</linearGradient>
<linearGradient id="paint10_linear_330_2273" x1="20.4451" y1="30.4582" x2="22.135" y2="30.3347" gradientUnits="userSpaceOnUse">
<stop stop-color="#6B4DE0"/>
<stop offset="0.544792" stop-color="#9C42E3"/>
<stop offset="1" stop-color="#C339E5"/>
</linearGradient>
<linearGradient id="paint11_linear_330_2273" x1="20.4451" y1="30.4582" x2="22.135" y2="30.3347" gradientUnits="userSpaceOnUse">
<stop stop-color="#6B4DE0"/>
<stop offset="0.544792" stop-color="#9C42E3"/>
<stop offset="1" stop-color="#C339E5"/>
</linearGradient>
<linearGradient id="paint12_linear_330_2273" x1="0.588486" y1="33.473" x2="40.1999" y2="30.01" gradientUnits="userSpaceOnUse">
<stop stop-color="#6B4DE0"/>
<stop offset="0.544792" stop-color="#9C42E3"/>
<stop offset="1" stop-color="#C339E5"/>
</linearGradient>
<linearGradient id="paint13_linear_330_2273" x1="0.588486" y1="33.473" x2="40.1999" y2="30.01" gradientUnits="userSpaceOnUse">
<stop stop-color="#6B4DE0"/>
<stop offset="0.544792" stop-color="#9C42E3"/>
<stop offset="1" stop-color="#C339E5"/>
</linearGradient>
</defs>
</svg>
