<svg width="16" height="16" viewBox="0 0 16 16" fill="none" xmlns="http://www.w3.org/2000/svg">
<path d="M2 4H3.33333H14" stroke="#9F9DA6" stroke-width="1.5" stroke-linecap="round" stroke-linejoin="round"/>
<path d="M13.4168 4.00065C13.4168 3.58644 13.081 3.25065 12.6668 3.25065C12.2526 3.25065 11.9168 3.58644 11.9168 4.00065H13.4168ZM4.0835 4.00065C4.0835 3.58644 3.74771 3.25065 3.3335 3.25065C2.91928 3.25065 2.5835 3.58644 2.5835 4.00065H4.0835ZM4.5835 4.00065C4.5835 4.41486 4.91928 4.75065 5.3335 4.75065C5.74771 4.75065 6.0835 4.41486 6.0835 4.00065H4.5835ZM9.91683 4.00065C9.91683 4.41486 10.2526 4.75065 10.6668 4.75065C11.081 4.75065 11.4168 4.41486 11.4168 4.00065H9.91683ZM11.9168 4.00065V13.334H13.4168V4.00065H11.9168ZM11.9168 13.334C11.9168 13.6562 11.6557 13.9173 11.3335 13.9173V15.4173C12.4841 15.4173 13.4168 14.4846 13.4168 13.334H11.9168ZM11.3335 13.9173H4.66683V15.4173H11.3335V13.9173ZM4.66683 13.9173C4.34466 13.9173 4.0835 13.6562 4.0835 13.334H2.5835C2.5835 14.4846 3.51624 15.4173 4.66683 15.4173V13.9173ZM4.0835 13.334V4.00065H2.5835V13.334H4.0835ZM6.0835 4.00065V2.66732H4.5835V4.00065H6.0835ZM6.0835 2.66732C6.0835 2.34515 6.34466 2.08398 6.66683 2.08398V0.583984C5.51624 0.583984 4.5835 1.51672 4.5835 2.66732H6.0835ZM6.66683 2.08398H9.3335V0.583984H6.66683V2.08398ZM9.3335 2.08398C9.65566 2.08398 9.91683 2.34515 9.91683 2.66732H11.4168C11.4168 1.51672 10.4841 0.583984 9.3335 0.583984V2.08398ZM9.91683 2.66732V4.00065H11.4168V2.66732H9.91683Z" fill="#9F9DA6"/>
<path d="M6.6665 7.33398V11.334" stroke="#9F9DA6" stroke-width="1.5" stroke-linecap="round" stroke-linejoin="round"/>
<path d="M9.3335 7.33398V11.334" stroke="#9F9DA6" stroke-width="1.5" stroke-linecap="round" stroke-linejoin="round"/>
</svg>
