<svg width="17" height="14" viewBox="0 0 17 14" fill="none" xmlns="http://www.w3.org/2000/svg">
<path d="M5.09203 13.5005C11.1283 13.5005 14.4308 8.49829 14.4308 4.16173C14.4308 4.0211 14.4277 3.87735 14.4214 3.73673C15.0638 3.27213 15.6183 2.69666 16.0586 2.03735C15.4603 2.30355 14.825 2.47741 14.1745 2.55298C14.8594 2.14243 15.3723 1.49747 15.618 0.737666C14.9736 1.11953 14.269 1.3889 13.5342 1.53423C13.0392 1.0082 12.3846 0.659899 11.6717 0.543189C10.9588 0.426479 10.2274 0.547855 9.59042 0.888553C8.95345 1.22925 8.44646 1.77029 8.14783 2.42803C7.84919 3.08577 7.77555 3.82356 7.93828 4.52735C6.63359 4.46188 5.35722 4.12296 4.19192 3.53255C3.02661 2.94215 1.99839 2.11345 1.17391 1.10017C0.75486 1.82265 0.626631 2.67758 0.815281 3.49122C1.00393 4.30485 1.4953 5.01612 2.18953 5.48048C1.66835 5.46393 1.15858 5.32361 0.702344 5.0711V5.11173C0.701877 5.86992 0.963992 6.60488 1.44413 7.19167C1.92427 7.77846 2.59281 8.18086 3.33609 8.33048C2.8533 8.46257 2.34658 8.48182 1.85516 8.38673C2.0649 9.03878 2.47298 9.60908 3.02244 10.018C3.57191 10.427 4.23534 10.6542 4.92016 10.668C3.75754 11.5812 2.32138 12.0766 0.842969 12.0742C0.580785 12.0738 0.31886 12.0578 0.0585938 12.0261C1.5605 12.9897 3.30761 13.5014 5.09203 13.5005Z" fill="#4D1C8C"/>
</svg>
