<svg width="45" height="44" viewBox="0 0 45 44" fill="none" xmlns="http://www.w3.org/2000/svg">
<rect x="0.253052" width="44" height="44" rx="8" fill="#F9F5FA"/>
<path fill-rule="evenodd" clip-rule="evenodd" d="M24.2902 19.8131V17.3537C24.8143 17.2648 25.2161 16.8092 25.2161 16.2592V14.7777C25.2161 14.1648 24.718 13.6665 24.1049 13.6665H20.0309C19.4179 13.6665 18.9197 14.1646 18.9197 14.7777V16.2592C18.9197 16.8092 19.3215 17.2647 19.8456 17.3537L19.8457 28.111C19.8457 29.3368 20.8421 30.3332 22.0679 30.3332C23.2938 30.3332 24.2901 29.3368 24.2901 28.111V27.8906L24.2902 19.8131ZM24.1049 14.4074H23.3643V16.6296H24.1049C24.3086 16.6296 24.4753 16.463 24.4753 16.2593V14.7778C24.4753 14.5741 24.3086 14.4074 24.1049 14.4074ZM23.1883 20.5333C22.2883 19.9666 21.1457 19.7278 20.5865 19.6389V17.3705L23.5495 17.3705L23.5495 20.7498L23.5494 27.4594L23.5494 28.1112C23.5494 28.9279 22.8845 29.5928 22.0679 29.5928C21.2512 29.5928 20.5864 28.9279 20.5864 28.1112V20.389C21.166 20.489 22.003 20.7056 22.6679 21.0853C22.0605 21.8464 21.6975 22.8074 21.6975 23.852C21.6975 25.3353 22.429 26.6501 23.5494 27.4594L23.5495 20.7498L23.1883 20.5333ZM22.6236 14.4074H21.5124V16.6296H22.6236V14.4074ZM19.6605 16.2594C19.6605 16.4631 19.8272 16.6298 20.0309 16.6298H20.7715V14.4076H20.0309C19.8272 14.4076 19.6605 14.5742 19.6605 14.7779V16.2594Z" fill="#9E62B3"/>
<path fill-rule="evenodd" clip-rule="evenodd" d="M22.0679 29.5928C22.8845 29.5928 23.5494 28.9279 23.5494 28.1112L23.5494 27.4594C22.429 26.6501 21.6975 25.3353 21.6975 23.852C21.6975 22.8074 22.0605 21.8464 22.6679 21.0853C22.003 20.7056 21.166 20.489 20.5864 20.389V28.1112C20.5864 28.9279 21.2512 29.5928 22.0679 29.5928Z" fill="#9E62B3"/>
</svg>
