<svg width="45" height="44" viewBox="0 0 45 44" fill="none" xmlns="http://www.w3.org/2000/svg">
<rect x="0.0837402" width="44" height="44" rx="8" fill="#F9F5FA"/>
<path fill-rule="evenodd" clip-rule="evenodd" d="M27.8675 13.6665H16.7701C16.1742 13.6665 15.6809 14.1598 15.6809 14.7557L15.6808 19.4648L15.6808 22.3424L15.6808 29.244C15.6808 29.8399 16.174 30.3332 16.77 30.3332H20.9331H22.1955L27.8675 30.3331C28.4634 30.3331 28.9567 29.8399 28.9567 29.244V14.7557C28.9362 14.1598 28.4635 13.6665 27.8675 13.6665ZM27.847 29.4495C27.9704 29.4495 28.0526 29.3467 28.0526 29.244L28.0731 29.2438V14.7555C28.0731 14.6321 27.9703 14.55 27.8675 14.55H16.7702C16.6467 14.55 16.5646 14.6528 16.5646 14.7555V21.5324V24.0705V29.2438C16.5646 29.3672 16.6674 29.4494 16.7702 29.4494L20.1782 29.4494L21.4552 29.4494L27.847 29.4495Z" fill="#9E62B3" stroke="#9E62B3" stroke-width="0.4"/>
<path d="M25.6069 24.0859H19.0101C18.7635 24.0859 18.558 24.2915 18.558 24.5381C18.558 24.7846 18.7635 24.9902 19.0101 24.9902L25.6069 24.99C25.8534 24.99 26.059 24.7845 26.059 24.5379C26.059 24.2914 25.8534 24.0859 25.6069 24.0859V24.0859Z" fill="#9E62B3" stroke="#9E62B3" stroke-width="0.4"/>
<path d="M25.6069 26.7573H19.0101C18.7635 26.7573 18.558 26.9629 18.558 27.2094C18.558 27.456 18.7635 27.6616 19.0101 27.6616H25.6069C25.8534 27.6616 26.059 27.456 26.059 27.2094C26.059 26.9629 25.8534 26.7573 25.6069 26.7573Z" fill="#9E62B3" stroke="#9E62B3" stroke-width="0.4"/>
<path d="M25.6069 21.4346H19.0101C18.7635 21.4346 18.558 21.6401 18.558 21.8867C18.558 22.1332 18.7635 22.3388 19.0101 22.3388H25.6069C25.8534 22.3388 26.059 22.1332 26.059 21.8867C26.059 21.6195 25.8534 21.4346 25.6069 21.4346Z" fill="#9E62B3" stroke="#9E62B3" stroke-width="0.4"/>
<path d="M19.791 19.7289H20.5925C20.6953 19.7289 20.7569 19.6468 20.7569 19.5645V18.2904C20.7569 18.1876 20.6748 18.126 20.5925 18.126H19.791C19.6882 18.126 19.6266 18.2081 19.6266 18.2904V19.5645C19.6266 19.6468 19.7087 19.7289 19.791 19.7289Z" fill="#9E62B3" stroke="#9E62B3" stroke-width="0.4"/>
<path d="M21.7844 19.7289H22.5859C22.6887 19.7289 22.7503 19.6467 22.7503 19.5644V17.3656C22.7503 17.2628 22.6682 17.2012 22.5859 17.2012H21.7844C21.6816 17.2012 21.62 17.2833 21.62 17.3656V19.5439C21.62 19.6467 21.7021 19.7289 21.7844 19.7289V19.7289Z" fill="#9E62B3" stroke="#9E62B3" stroke-width="0.4"/>
<path d="M23.7779 19.7288H24.5794C24.6822 19.7288 24.7439 19.6467 24.7439 19.5644V16.4818C24.7439 16.3997 24.6617 16.3174 24.5794 16.3174H23.7779C23.6752 16.3174 23.6135 16.3995 23.6135 16.4818V19.5644C23.6135 19.6467 23.6957 19.7288 23.7779 19.7288Z" fill="#9E62B3" stroke="#9E62B3" stroke-width="0.4"/>
</svg>
