<svg width="14" height="14" viewBox="0 0 14 14" fill="none" xmlns="http://www.w3.org/2000/svg">
<path d="M3.29646 0.333984C1.655 0.333984 0.333496 1.65549 0.333496 3.29695V13.6673H10.7039C12.3453 13.6673 13.6668 12.3458 13.6668 10.7044V3.29695C13.6668 1.65549 12.3453 0.333984 10.7039 0.333984H3.29646ZM7.00016 2.55621C7.39307 2.55621 7.76995 2.71225 8.04773 2.99012C8.32561 3.2679 8.48164 3.64478 8.48164 4.03769C8.48164 4.4306 8.3256 4.80748 8.04773 5.08525C7.76995 5.36314 7.39307 5.51917 7.00016 5.51917C6.60725 5.51917 6.23038 5.36313 5.9526 5.08525C5.67471 4.80748 5.51868 4.4306 5.51868 4.03769C5.51868 3.64478 5.67472 3.2679 5.9526 2.99012C6.23038 2.71224 6.60725 2.55621 7.00016 2.55621ZM6.25942 6.25991H7.7409C8.15127 6.25991 8.48164 6.59028 8.48164 7.00065V10.7044C8.48164 11.1147 8.15127 11.4451 7.7409 11.4451H6.25942C5.84905 11.4451 5.51868 11.1147 5.51868 10.7044V7.00065C5.51868 6.59028 5.84905 6.25991 6.25942 6.25991Z" fill="#4D1C8C"/>
</svg>
